<svg width="60" height="60" viewBox="0 0 60 60" fill="none" xmlns="http://www.w3.org/2000/svg">
<rect width="60" height="60" rx="12" fill="white"/>
<g clip-path="url(#clip0_9057_47444)">
<path d="M9 24.5645H13.125C13.5 24.5645 14.625 24.4395 15.125 26.1895C15.5 27.3145 16 29.0645 16.75 31.6895H17C17.75 28.9395 18.375 27.0645 18.625 26.1895C19.125 24.4395 20.375 24.5645 20.875 24.5645H24.75V36.5645H20.75V29.4395H20.5L18.375 36.5645H15.375L13.25 29.4395H12.875V36.5645H9M26.375 24.5645H30.375V31.6895H30.75L33.375 25.8145C33.875 24.6895 35 24.5645 35 24.5645H38.75V36.5645H34.75V29.4395H34.5L31.875 35.3145C31.375 36.4395 30.125 36.5645 30.125 36.5645H26.375M44.125 32.9395V36.5645H40.375V30.3145H52.625C52.125 31.8145 50.375 32.9395 48.375 32.9395" fill="#0F754E"/>
<path d="M52.875 29.5625C53.375 27.3125 51.875 24.5625 48.625 24.5625H40.125C40.375 27.1875 42.625 29.5625 45 29.5625" fill="url(#paint0_linear_9057_47444)"/>
</g>
<defs>
<linearGradient id="paint0_linear_9057_47444" x1="51.375" y1="22.9375" x2="41.375" y2="22.9375" gradientUnits="userSpaceOnUse">
<stop stop-color="#1F5CD7"/>
<stop offset="1" stop-color="#02AEFF"/>
</linearGradient>
<clipPath id="clip0_9057_47444">
<rect width="44" height="12.125" fill="white" transform="translate(9 24.4375)"/>
</clipPath>
</defs>
</svg>
