<svg width="60" height="60" viewBox="0 0 60 60" fill="none" xmlns="http://www.w3.org/2000/svg">
<rect width="60" height="60" rx="12" fill="white"/>
<g clip-path="url(#clip0_9057_47409)">
<path d="M30 21.0059V29.5124L40.0889 26.6438V35.2974L30 38.166V46.6724L50 40.9868V15.3203L30 21.0059Z" fill="#54AC79"/>
<path d="M30 29.5124V21.0059L10 15.3203V25.0442L14.9441 26.4469C16.3908 26.8578 17.3903 28.1784 17.3903 29.6825V29.8296C17.3903 31.4694 15.827 32.6562 14.2484 32.2147L10 31.0279V40.9868L30 46.6724V38.166L19.9111 35.2974V26.6438L30 29.5124Z" fill="#016599"/>
<path d="M16.1495 29.5868C16.1533 30.4086 15.6297 31.0393 14.9799 30.9953C14.3301 30.9514 13.8007 30.2481 13.7969 29.4263C13.7931 28.6045 14.3167 27.9738 14.9665 28.0178C15.6163 28.0617 16.1457 28.765 16.1495 29.5868Z" fill="#016599"/>
</g>
<defs>
<clipPath id="clip0_9057_47409">
<rect width="40" height="31.3521" fill="white" transform="translate(10 15.3203)"/>
</clipPath>
</defs>
</svg>
