<svg width="60" height="60" viewBox="0 0 60 60" fill="none" xmlns="http://www.w3.org/2000/svg">
<rect width="60" height="60" rx="12" fill="white"/>
<path d="M24.6416 30L19.9423 32.7094L15.582 40.26L33.3689 30H24.6416Z" fill="#874691"/>
<path d="M38.0674 22.2578L33.3681 24.9672L29.0078 32.5178L46.788 22.2578H38.0674Z" fill="#DA1844"/>
<path d="M33.3681 19.5505L29.0078 12V27.4796V32.52V47.9996L33.3681 40.449V19.5505Z" fill="#F9B229"/>
<path d="M29.0078 12L33.3681 19.5505L38.0674 22.26H46.788L29.0078 12Z" fill="#F07F1A"/>
<path d="M29.0078 27.4766V47.9965L33.3681 40.446V35.0205L29.0078 27.4766Z" fill="#72B22C"/>
<path d="M38.0674 37.7422L33.3681 40.4517L29.0078 48.0022L46.788 37.7422H38.0674Z" fill="#00743E"/>
<path d="M15.582 19.7344V40.2543L19.9423 32.7038V27.2849L15.582 19.7344Z" fill="#5F5A94"/>
<path d="M29.0086 27.4775V27.4842L15.582 19.7344L19.9423 27.285L38.0682 37.7375H46.7888L29.0086 27.4775Z" fill="#0D90CD"/>
</svg>
