<svg width="60" height="60" viewBox="0 0 60 60" fill="none" xmlns="http://www.w3.org/2000/svg">
<rect width="60" height="60" rx="12" fill="white"/>
<path d="M36.3357 14C27.6508 14 20.6719 21.0258 20.6719 29.6128C20.6719 38.2706 27.7195 45.2256 36.3336 45.2256C44.9477 45.2256 52.0015 38.1998 52.0015 29.6128C52.0015 21.0258 44.9498 14 36.3357 14ZM36.3357 35.4322C33.1319 35.4322 30.4986 32.8061 30.4986 29.6128C30.4986 26.4195 33.1319 23.7934 36.3357 23.7934C39.5394 23.7934 42.1738 26.4195 42.1738 29.6128C42.102 32.8061 39.5394 35.4322 36.3357 35.4322Z" fill="#8B3FFD"/>
<path d="M20.6693 18.5391V41.2484H15.1194L8 18.5391H20.6693Z" fill="#8B3FFD"/>
</svg>
